<?xml version="1.0" encoding="UTF-8" standalone="no"?>
<!-- Created with Inkscape (http://www.inkscape.org/) -->

<svg
   width="3840"
   height="2160"
   viewBox="0 0 3840 2160"
   version="1.1"
   id="svg1"
   xml:space="preserve"
   inkscape:version="1.4.2 (ebf0e940d0, 2025-05-08)"
   sodipodi:docname="wallpaper.svg"
   xmlns:inkscape="http://www.inkscape.org/namespaces/inkscape"
   xmlns:sodipodi="http://sodipodi.sourceforge.net/DTD/sodipodi-0.dtd"
   xmlns="http://www.w3.org/2000/svg"
   xmlns:svg="http://www.w3.org/2000/svg"><sodipodi:namedview
     id="namedview1"
     pagecolor="#ffffff"
     bordercolor="#000000"
     borderopacity="0.25"
     inkscape:showpageshadow="2"
     inkscape:pageopacity="0.0"
     inkscape:pagecheckerboard="0"
     inkscape:deskcolor="#d1d1d1"
     inkscape:document-units="px"
     inkscape:zoom="0.22760417"
     inkscape:cx="1680.5492"
     inkscape:cy="1021.5103"
     inkscape:window-width="1820"
     inkscape:window-height="990"
     inkscape:window-x="0"
     inkscape:window-y="0"
     inkscape:window-maximized="0"
     inkscape:current-layer="layer1"
     inkscape:clip-to-page="false" /><defs
     id="defs1" /><g
     inkscape:label="Wallpaper"
     inkscape:groupmode="layer"
     id="layer1"><rect
       style="fill:#37383d;stroke-width:1.16782;fill-opacity:1"
       id="rect2"
       width="3840"
       height="2160"
       x="0"
       y="0"
       inkscape:label="Bg" /><path
       style="fill:#597445;fill-opacity:1;stroke-width:0.384184"
       d="m 1880.5555,1249.6601 c -21.4121,-12.2799 -52.5312,-30.1066 -69.1536,-39.6145 -49.8663,-28.5231 -56.2966,-32.2833 -57.5,-33.6225 l -1.1525,-1.2825 0.01,-95.6341 c 0.01,-74.8879 0.1449,-95.89806 0.6402,-96.85139 0.7022,-1.35056 0.8064,-1.41255 33.6729,-20.02829 12.8192,-7.26072 36.1008,-20.45625 51.7373,-29.32336 31.8939,-18.08648 76.7279,-43.33759 79.2818,-44.65257 2.4863,-1.28022 -2.0602,-3.63543 50.3173,26.0661 16.4815,9.3462 43.5667,24.67713 60.1891,34.06871 37.877,21.4001 56.6026,32.15574 57.7562,33.17382 0.8477,0.7482 0.8964,6.01894 0.8964,97.07368 v 96.2823 l -1.4086,1.2711 c -1.7387,1.5684 -37.3873,22.2205 -86.9543,50.3745 -11.5512,6.5609 -34.08,19.3816 -50.064,28.4903 -15.9839,9.1088 -29.1232,16.5556 -29.1983,16.5486 -0.075,-0.01 -17.6553,-10.0601 -39.0673,-22.3399 z m 7.2097,-37.8208 c 6.4062,-3.1393 10.9744,-9.3468 13.3946,-18.2008 0.8346,-3.0531 0.9102,-6.54 0.9102,-42.0044 0,-37.8975 -0.023,-38.8023 -1.1535,-45.0201 -1.4095,-7.7529 -3.4764,-13.975 -6.9955,-21.06 -7.1188,-14.3324 -15.8454,-23.5606 -31.9394,-33.7754 -6.6685,-4.2327 -33.0531,-19.3753 -46.2255,-26.53 -5.2122,-2.8309 -14.6632,-7.963 -21.0023,-11.4046 -6.3391,-3.4417 -12.7358,-6.9422 -14.215,-7.7791 l -2.6893,-1.5215 0.01,78.2837 0.01,78.2836 5.4978,3.1482 c 24.0996,13.7998 54.8127,31.5313 62.8699,36.2964 20.587,12.1754 24.7199,13.8148 33.5523,13.3091 3.6274,-0.2076 4.959,-0.5457 7.978,-2.0251 z m -31.5415,-35.5162 c -1.8655,-0.7565 -29.451,-16.6075 -43.4131,-24.9458 l -3.2015,-1.9119 v -49.8387 -49.8387 l 15.2394,8.8483 c 32.6699,18.9688 33.665,19.6372 38.8297,26.0811 5.3224,6.6407 8.5458,15.2372 9.4375,25.1684 0.5776,6.4342 0.5986,31.1271 0.037,44.3096 -0.4557,10.7023 -1.1434,13.9048 -3.8718,18.0278 -2.6843,4.0562 -8.5918,5.911 -13.0577,4.0999 z m 119.1282,32.9158 c 6.5654,-1.9025 6.2385,-1.728 48.8895,-26.1065 9.4383,-5.3947 22.1739,-12.6403 28.3018,-16.1012 l 11.1414,-6.2927 v -44.7638 c 0,-24.6199 -0.1844,-44.7636 -0.4099,-44.7636 -0.2252,0 -0.6287,0.2077 -0.8963,0.4617 -0.2677,0.2539 -5.0969,3.0423 -10.7317,6.1964 -17.8473,9.9903 -19.6842,11.0261 -34.0645,19.2059 -7.7477,4.407 -14.2641,8.1862 -14.4807,8.3981 -0.2166,0.2118 -0.3319,5.7117 -0.2561,12.222 l 0.1377,11.8367 12.264,-7.1636 c 6.7451,-3.9399 13.7181,-7.9767 15.4956,-8.9706 l 3.2315,-1.8072 v 15.6205 15.6204 l -16.4714,9.3958 c -9.0592,5.1677 -17.8764,9.9384 -19.5935,10.6014 -9.4734,3.6585 -19.3213,1.7678 -25.3925,-4.8752 -5.6427,-6.174 -7.7391,-13.0793 -7.7222,-25.436 0.032,-23.7173 9.1108,-40.6487 27.4805,-51.2513 30.4957,-17.6016 39.548,-22.7856 54.2491,-31.0656 l 16.9043,-9.521 0.1339,-20.3356 c 0.073,-11.1845 -0.023,-20.3355 -0.2148,-20.3355 -0.475,0 -15.2237,8.1037 -40.3868,22.1907 -41.8207,23.4124 -43.6769,24.5262 -52.2494,31.3496 -5.4124,4.3081 -10.7903,9.8695 -14.2625,14.7491 -6.1457,8.6367 -12.6656,25.2314 -15.6748,39.896 -2.6013,12.6763 -2.8473,16.488 -2.8364,43.9524 l 0.01,25.8687 1.392,5.0859 c 0.7657,2.7974 2.4634,7.2924 3.7728,9.9889 1.9648,4.0463 3.1072,5.6293 6.5376,9.0599 8.0378,8.0382 15.4101,10.0717 25.7015,7.0893 z m -51.5235,-134.8721 c 9.0789,-22.9533 21.9768,-37.513 45.8583,-51.7664 12.1986,-7.2805 66.7903,-37.80835 69.0953,-38.63826 0.3139,-0.11299 0.4555,-0.31353 0.3147,-0.44565 -0.329,-0.3084 -11.8157,-6.84513 -29.9666,-17.05308 -7.8886,-4.43648 -20.3364,-11.47752 -27.6615,-15.64678 -7.3252,-4.16925 -24.1281,-13.70605 -37.3397,-21.19289 l -24.0214,-13.61246 -29.5087,16.8365 c -16.2298,9.26006 -42.7631,24.37956 -58.963,33.59889 -36.4466,20.74174 -33.8086,19.22259 -33.8086,19.46858 0,0.11366 2.4782,1.52891 5.5068,3.14501 14.3802,7.67325 62.2601,34.24184 69.794,38.72874 24.2565,14.4461 36.2617,27.0099 45.4483,47.5629 1.3458,3.0111 2.5354,5.3934 2.6435,5.2941 0.108,-0.099 1.282,-2.925 2.6086,-6.2792 z"
       id="path1"
       inkscape:label="Logo" /></g></svg>
